<?xml version="1.0" encoding="UTF-8"?>
<svg width="46px" height="20px" viewBox="0 0 46 20" version="1.1" xmlns="http://www.w3.org/2000/svg" xmlns:xlink="http://www.w3.org/1999/xlink">
    <!-- Generator: Sketch 48.2 (47327) - http://www.bohemiancoding.com/sketch -->
    <title>bq_yitoupiao</title>
    <desc>Created with Sketch.</desc>
    <defs></defs>
    <g id="01教研活动_用户投票_1列表" stroke="none" stroke-width="1" fill="none" fill-rule="evenodd" transform="translate(-320.000000, -544.000000)">
        <g id="列表" transform="translate(0.000000, 404.000000)">
            <g id="bq_yitoupiao" transform="translate(320.000000, 140.000000)">
                <rect id="Combined-Shape" stroke="#999999" x="1" y="1" width="44" height="18" rx="4"></rect>
                <path d="M15.02,9.632 L7.484,9.632 L7.484,13.172 C7.484,13.7 7.76,13.976 8.312,13.976 L14.336,13.976 C14.624,13.976 14.864,13.904 15.044,13.76 C15.284,13.544 15.44,12.776 15.512,11.456 L16.352,11.72 C16.232,13.208 16.028,14.096 15.74,14.408 C15.476,14.66 15.08,14.792 14.576,14.816 L8.072,14.816 C7.1,14.816 6.62,14.312 6.62,13.328 L6.62,7.028 L7.484,7.028 L7.484,8.804 L14.144,8.804 L14.144,5.672 L6.14,5.672 L6.14,4.832 L15.02,4.832 L15.02,9.632 Z M18.944,15.068 L17.912,15.068 L17.732,14.228 C18.044,14.252 18.356,14.276 18.644,14.276 C18.968,14.276 19.136,14.108 19.136,13.772 L19.136,10.844 C18.656,11.048 18.152,11.24 17.648,11.408 L17.432,10.544 C18.008,10.388 18.584,10.196 19.136,9.968 L19.136,7.232 L17.672,7.232 L17.672,6.404 L19.136,6.404 L19.136,4.208 L20,4.208 L20,6.404 L21.368,6.404 L21.368,7.232 L20,7.232 L20,9.584 C20.444,9.368 20.876,9.128 21.308,8.864 L21.308,9.752 C20.876,9.992 20.444,10.232 20,10.448 L20,13.988 C20,14.708 19.64,15.068 18.944,15.068 Z M21.764,9.332 L27.5,9.332 L27.5,10.136 C27.128,11.264 26.516,12.236 25.652,13.04 C26.456,13.592 27.44,14.072 28.604,14.48 L28.136,15.224 C26.9,14.744 25.868,14.192 25.04,13.568 C24.104,14.264 22.952,14.828 21.596,15.248 L21.128,14.516 C22.4,14.12 23.468,13.616 24.344,12.992 C23.42,12.152 22.796,11.216 22.484,10.172 L21.764,10.172 L21.764,9.332 Z M23.276,10.172 C23.588,11.036 24.14,11.816 24.956,12.512 C25.712,11.84 26.276,11.06 26.648,10.172 L23.276,10.172 Z M22.688,4.676 L26.72,4.676 L26.72,7.256 C26.72,7.544 26.888,7.7 27.224,7.7 L28.232,7.7 L28.232,8.504 L27.008,8.504 C26.24,8.504 25.868,8.144 25.868,7.448 L25.868,5.492 L23.54,5.492 L23.54,6.188 C23.54,7.316 22.988,8.192 21.884,8.816 L21.308,8.156 C22.22,7.712 22.688,7.088 22.688,6.272 L22.688,4.676 Z M29.672,4.664 L40.328,4.664 L40.328,5.42 L36.716,5.42 L36.716,6.38 L39.464,6.38 L39.464,9.044 L30.548,9.044 L30.548,6.38 L33.296,6.38 L33.296,5.42 L29.672,5.42 L29.672,4.664 Z M35.9,6.38 L35.9,5.42 L34.112,5.42 L34.112,6.38 L35.9,6.38 Z M38.636,8.336 L38.636,7.1 L36.716,7.1 L36.716,8.336 L38.636,8.336 Z M35.9,8.336 L35.9,7.1 L34.112,7.1 L34.112,8.336 L35.9,8.336 Z M33.296,8.336 L33.296,7.1 L31.376,7.1 L31.376,8.336 L33.296,8.336 Z M31.052,9.932 L39.008,9.932 L39.008,10.652 L31.052,10.652 L31.052,9.932 Z M29.864,11.528 L40.136,11.528 L40.136,12.284 L35.552,12.284 L35.552,14.156 C35.552,14.816 35.192,15.152 34.472,15.152 L33.392,15.152 L33.224,14.384 C33.56,14.408 33.884,14.432 34.196,14.432 C34.532,14.432 34.712,14.276 34.712,13.964 L34.712,12.284 L29.864,12.284 L29.864,11.528 Z M37.46,12.692 C38.564,13.28 39.488,13.868 40.232,14.456 L39.632,15.056 C38.972,14.48 38.06,13.88 36.884,13.232 L37.46,12.692 Z M32.78,12.716 L33.344,13.232 C32.54,13.928 31.556,14.528 30.38,15.044 L29.864,14.372 C31.016,13.892 31.988,13.34 32.78,12.716 Z" id="已投票" fill="#999999"></path>
            </g>
        </g>
    </g>
</svg>