<?xml version="1.0" encoding="UTF-8"?>
<svg width="62px" height="62px" viewBox="0 0 62 62" version="1.1" xmlns="http://www.w3.org/2000/svg" xmlns:xlink="http://www.w3.org/1999/xlink">
    <!-- Generator: Sketch 48.2 (47327) - http://www.bohemiancoding.com/sketch -->
    <title>bt_play</title>
    <desc>Created with Sketch.</desc>
    <defs></defs>
    <g id="01教研活动_用户投票_1列表" stroke="none" stroke-width="1" fill="none" fill-rule="evenodd" transform="translate(-157.000000, -138.000000)">
        <g id="bt_play" transform="translate(157.000000, 138.000000)">
            <circle id="Oval-8" stroke="#FFFFFF" stroke-width="0.5" fill="#999999" opacity="0.653362772" cx="31" cy="31" r="30"></circle>
            <path d="M41.4199707,29.6514536 L41.4205146,29.6509094 L27.2748873,19.9456718 L27.2704682,19.949844 C26.977378,19.6713756 26.5797699,19.5 26.141551,19.5 C25.240117,19.5 24.5093973,20.2238907 24.5093973,21.1174791 C24.5093973,21.608251 24.4882534,22.569138 24.5093973,22.5482999 L24.5093973,30.8227167 L24.5093973,39.532511 C24.5093973,39.5397215 24.5093973,40.0919872 24.5093973,40.5282037 C24.5093973,41.4212479 25.240117,42.1451613 26.141551,42.1451613 C26.5814242,42.1451613 26.9807094,41.9726746 27.2737769,41.6916667 L27.2748873,41.6922336 L41.4205147,31.9872908 L41.4199708,31.9864291 C41.7274967,31.6923832 41.9193548,31.2798166 41.9193548,30.8224219 C41.9193548,30.8213109 41.9193548,30.8204719 41.9193548,30.8190887 C41.9193548,30.8179777 41.9193548,30.8166172 41.9193548,30.8157782 C41.9193548,30.3583383 41.7274967,29.9454768 41.4199707,29.6514536 Z" id="Shape" fill="#FFFFFF" fill-rule="nonzero" opacity="0.699999988"></path>
        </g>
    </g>
</svg>