<?xml version="1.0" encoding="UTF-8"?>
<svg width="16px" height="16px" viewBox="0 0 16 16" version="1.1" xmlns="http://www.w3.org/2000/svg" xmlns:xlink="http://www.w3.org/1999/xlink">
    <!-- Generator: Sketch 48.2 (47327) - http://www.bohemiancoding.com/sketch -->
    <title>ic_jiaoyan_toupiao</title>
    <desc>Created with Sketch.</desc>
    <defs></defs>
    <g id="01教研活动_用户投票_2详情" stroke="none" stroke-width="1" fill="none" fill-rule="evenodd" transform="translate(-105.000000, -306.000000)">
        <g id="ic_jiaoyan_toupiao" transform="translate(105.000000, 306.000000)" fill="#FFFFFF" fill-rule="nonzero">
            <path d="M13.8322917,9.5185303 C13.468003,9.51854496 13.1731047,9.21546321 13.1731047,8.84208102 L13.1731047,1.67630273 C13.1731047,1.30294986 13.4680324,1 13.8322917,1 L15.3408278,1 C15.7051754,1 16,1.30294986 16,1.67630273 L16,8.84208102 C16,9.21549252 15.7051754,9.5185303 15.3408278,9.5185303 L13.8322917,9.5185303 Z M1.26003587,9.27093269 L1.2600506,9.27087407 C1.05886108,8.93355804 0.978835988,8.55391814 1.00471563,8.18682299 C1.03782742,7.84269235 2.33446067,2.04292892 2.3718882,1.98650686 C2.50675102,1.70564221 2.71375867,1.45710667 2.98753491,1.27541296 C3.27465602,1.08611326 3.45273504,1.00389825 3.76800413,1.00389825 L12.1259197,1.00356118 C12.1256693,1.00379567 12.127643,1.00389825 12.133962,1.00389825 C12.1400158,1.00389825 12.142019,1.00381032 12.1417686,1.00356118 L12.3101998,1.00356118 L12.2970317,9.55043442 C10.5717126,9.75202973 9.12148067,11.2216267 9.07224013,13.049687 C9.07668842,13.1024453 9.07224013,13.155145 9.07224013,13.2102481 C9.07224013,14.1878447 8.44469203,15 7.50343616,15 C6.69468639,15 6.01884043,14.4142364 5.84445851,13.6287093 L5.83616583,13.6296179 C5.73995308,13.1814069 5.68761935,12.7160348 5.68761935,12.2376343 C5.68761935,11.500381 5.74870237,10.7157186 5.97021853,10.0573684 C5.97021853,10.0573684 2.62496956,10.0433581 2.5960262,10.0388443 C2.03832513,10.0153522 1.57732289,9.80118287 1.26003587,9.27093269 Z" transform="translate(8.500000, 8.000000) scale(-1, -1) translate(-8.500000, -8.000000) "></path>
        </g>
    </g>
</svg>