<?xml version="1.0" encoding="UTF-8"?>
<svg width="16px" height="16px" viewBox="0 0 16 16" version="1.1" xmlns="http://www.w3.org/2000/svg" xmlns:xlink="http://www.w3.org/1999/xlink">
    <!-- Generator: Sketch 48.2 (47327) - http://www.bohemiancoding.com/sketch -->
    <title>ic_jiaoyan_introduction</title>
    <desc>Created with Sketch.</desc>
    <defs></defs>
    <g id="01教研活动_用户投票_2详情" stroke="none" stroke-width="1" fill="none" fill-rule="evenodd" transform="translate(-15.000000, -586.000000)">
        <g id="ic_jiaoyan_introduction" transform="translate(15.000000, 586.000000)">
            <rect id="bg" x="0" y="0" width="16" height="16" rx="3"></rect>
            <path d="M11.5144591,0 C13.4637689,0.0300187676 15.0291238,1.68105067 14.9995888,3.66228894 L14.9995888,12.3076923 C15.0291238,14.3189494 13.463769,15.9699812 11.4849241,16 L5.37117964,16 C3.4218698,15.9699812 1.85651494,14.3189494 1.85651494,12.3076923 L1.85651494,6.0337711 C1.85651494,5.70356473 2.12232992,5.43339587 2.44721488,5.43339587 C2.77209985,5.43339587 3.03791483,5.70356473 3.03791483,6.0337711 L3.03791483,12.3377111 C3.00837984,13.6885554 4.04210475,14.7992495 5.37117964,14.8292683 L11.5144591,14.8292683 C12.843534,14.7992495 13.8772589,13.6885553 13.8477239,12.3377111 L13.8477239,3.69230769 C13.8772589,2.34146341 12.843534,1.23076924 11.5144591,1.20075047 L6.70025453,1.20075047 C6.37536956,1.20075047 6.10955458,0.930581636 6.10955458,0.600375246 C6.10955458,0.270168855 6.37536956,0 6.70025453,0 L11.5144591,0 Z M5.07582966,2.07129456 C5.07582966,3.2120075 4.16024473,4.14258912 3.03791483,4.14258912 C1.91558493,4.14258912 1,3.2120075 1,2.07129456 C1,0.930581619 1.91558493,0 3.03791483,0 C4.16024473,0 5.07582966,0.930581619 5.07582966,2.07129456 Z M2.1518649,2.07129456 C2.1518649,2.55159475 2.56535486,2.94183864 3.03791483,2.97185741 C3.54000978,2.97185741 3.92396475,2.55159475 3.92396475,2.07129456 C3.92396475,1.56097561 3.5104748,1.17073171 3.03791483,1.17073171 C2.53581988,1.17073171 2.1518649,1.59099436 2.1518649,2.07129456 Z M5.07582966,11.8574109 C4.75094469,11.8574109 4.48512971,11.587242 4.48512971,11.2570356 C4.48512971,10.9268293 4.75094469,10.6566604 5.07582966,10.6566604 L9.74235928,10.6566604 C10.0672442,10.6566604 10.3330592,10.9268292 10.3330592,11.2570356 C10.3330592,11.587242 10.0672442,11.8574109 9.74235928,11.8574109 L5.07582966,11.8574109 Z M5.07582966,8.88555348 C4.75094469,8.88555346 4.48512971,8.6153846 4.48512971,8.28517823 C4.48512971,7.95497186 4.75094469,7.684803 5.07582966,7.684803 L7.99979441,7.684803 C8.3246794,7.684803 8.59049439,7.95497184 8.59049437,8.28517823 C8.59049436,8.61538462 8.32467938,8.88555348 7.99979441,8.88555348 L5.07582966,8.88555348 Z M9.74235928,4.74296436 C10.0672442,4.74296436 10.3330592,4.98311445 10.3330592,5.34333959 C10.3330592,5.67354596 10.0672442,5.94371482 9.74235928,5.94371482 L5.07582966,5.94371482 C4.75094469,5.94371482 4.48512971,5.67354596 4.48512971,5.34333959 C4.48512971,5.01313322 4.75094469,4.74296436 5.07582966,4.74296436 L9.74235928,4.74296436 Z" id="Combined-Shape" fill="#999999" fill-rule="nonzero"></path>
        </g>
    </g>
</svg>