<?xml version="1.0" encoding="UTF-8"?>
<svg width="16px" height="16px" viewBox="0 0 16 16" version="1.1" xmlns="http://www.w3.org/2000/svg" xmlns:xlink="http://www.w3.org/1999/xlink">
    <!-- Generator: Sketch 48.2 (47327) - http://www.bohemiancoding.com/sketch -->
    <title>ic_jiaoyan_name</title>
    <desc>Created with Sketch.</desc>
    <defs></defs>
    <g id="01教研活动_用户投票_2详情" stroke="none" stroke-width="1" fill="none" fill-rule="evenodd" transform="translate(-15.000000, -422.000000)">
        <g id="ic_jiaoyan_name" transform="translate(15.000000, 422.000000)">
            <rect id="bg" x="0" y="0" width="16" height="16" rx="3"></rect>
            <path d="M12.9090909,1.31678218 C12.9090909,1.26689184 12.8899351,1.21904489 12.8558376,1.18376709 C12.8217401,1.1484893 12.7754939,1.12867044 12.7272727,1.12867044 L3.27272727,1.12867044 C3.22450609,1.12867044 3.17825993,1.1484893 3.1441624,1.18376709 C3.11006488,1.21904489 3.09090909,1.26689184 3.09090909,1.31678218 L3.09090909,14.5158305 L7.25963637,11.4315504 C7.70242083,11.1039231 8.29757917,11.1039231 8.74036363,11.4315504 L12.9090909,14.5158305 L12.9090909,1.31678218 Z M8.10545455,12.3495357 C8.04233376,12.3030386 7.95766624,12.3030386 7.89454545,12.3495357 L3.15018183,15.8597008 C2.92852031,16.0236224 2.63689366,16.0456087 2.39460517,15.9166651 C2.15231669,15.7877216 2.00001264,15.5294797 2,15.2475852 L2,1.31678218 C2,0.96754983 2.13409052,0.632621131 2.37277319,0.38567657 C2.61145585,0.138732009 2.93517901,-4.19270547e-11 3.27272727,0 L12.7272727,0 C13.064821,-4.19270828e-11 13.3885441,0.138732009 13.6272268,0.38567657 C13.8659095,0.632621131 14,0.96754983 14,1.31678218 L14,15.2475852 C13.9999874,15.5294797 13.8476833,15.7877216 13.6053948,15.9166651 C13.3631063,16.0456087 13.0714797,16.0236224 12.8498182,15.8597008 L8.10581818,12.3495357 L8.10545455,12.3495357 Z M5.09090909,5.26712872 L10.9090909,5.26712872 C11.2103321,5.26712134 11.4545325,5.01446202 11.4545325,4.7027935 C11.4545325,4.39112498 11.2103321,4.13846566 10.9090909,4.13845828 L5.09090909,4.13845828 C4.7896679,4.13846566 4.54546745,4.39112498 4.54546745,4.7027935 C4.54546745,5.01446202 4.7896679,5.26712134 5.09090909,5.26712872 Z M5.09090909,8.27691654 L10.9090909,8.27691654 C11.2103017,8.27686465 11.4544546,8.02421837 11.4544546,7.71258133 C11.4544546,7.40094429 11.2103017,7.14829801 10.9090909,7.14824612 L5.09090909,7.14824612 C4.78969869,7.14829854 4.54554629,7.40094466 4.54554629,7.71258133 C4.54554629,8.024218 4.78969869,8.27686412 5.09090909,8.27691654 Z" id="Shape" fill="#999999" fill-rule="nonzero"></path>
        </g>
    </g>
</svg>