<?xml version="1.0" encoding="UTF-8"?>
<svg width="16px" height="16px" viewBox="0 0 16 16" version="1.1" xmlns="http://www.w3.org/2000/svg" xmlns:xlink="http://www.w3.org/1999/xlink">
    <!-- Generator: Sketch 48.2 (47327) - http://www.bohemiancoding.com/sketch -->
    <title>ic_jiaoyan_author</title>
    <desc>Created with Sketch.</desc>
    <defs></defs>
    <g id="01教研活动_用户投票_2详情" stroke="none" stroke-width="1" fill="none" fill-rule="evenodd" transform="translate(-15.000000, -504.000000)">
        <g id="ic_jiaoyan_author" transform="translate(15.000000, 504.000000)">
            <rect id="bg" x="0" y="0" width="16" height="16" rx="3"></rect>
            <path d="M10.3461538,9.14285714 L6.65384615,9.14285714 C3.53846154,9.14285714 1,11.5428571 1,14.4 L1,14.7428571 C1,15.8857143 3.53846154,16 6.65384615,16 L10.3461538,16 C13.4615385,16 16,16 16,14.7428571 L16,14.4 C16,11.5428571 13.4615385,9.14285714 10.3461538,9.14285714 Z M14.8461538,14.0571429 C14.8461538,14.8571429 12.6538462,14.8571429 10,14.8571429 L7,14.8571429 C4.34615385,14.8571429 2.15384615,14.8571429 2.15384615,14.0571429 L2.15384615,13.8285714 C2.15384615,11.8857143 4.34615385,10.2857143 7,10.2857143 L10.1153846,10.2857143 C12.7692308,10.2857143 14.9615385,11.8857143 14.9615385,13.8285714 L14.9615385,14.0571429 L14.8461538,14.0571429 Z M8.5,0 C6.30769231,0 4.46153846,1.82857143 4.46153846,4 C4.46153846,6.17142857 6.30769231,8 8.5,8 C10.6923077,8 12.5384615,6.17142857 12.5384615,4 C12.5384615,1.82857143 10.6923077,0 8.5,0 Z M8.5,6.85714286 C6.88461538,6.85714286 5.61538462,5.6 5.61538462,4 C5.61538462,2.4 6.88461538,1.14285714 8.5,1.14285714 C10.1153846,1.14285714 11.3846154,2.4 11.3846154,4 C11.3846154,5.6 10.1153846,6.85714286 8.5,6.85714286 Z" id="Shape" fill="#999999" fill-rule="nonzero"></path>
        </g>
    </g>
</svg>