<?xml version="1.0" encoding="UTF-8"?>
<svg width="16px" height="16px" viewBox="0 0 16 16" version="1.1" xmlns="http://www.w3.org/2000/svg" xmlns:xlink="http://www.w3.org/1999/xlink">
    <!-- Generator: Sketch 48.2 (47327) - http://www.bohemiancoding.com/sketch -->
    <title>ic_jiaoyan_category</title>
    <desc>Created with Sketch.</desc>
    <defs></defs>
    <g id="01教研活动_用户投票_2详情" stroke="none" stroke-width="1" fill="none" fill-rule="evenodd" transform="translate(-15.000000, -463.000000)">
        <g id="ic_jiaoyan_category" transform="translate(15.000000, 463.000000)">
            <rect id="bg" x="0" y="0" width="16" height="16" rx="3"></rect>
            <path d="M15.2289157,3.64136158 L3.79553163,3.64136158 C3.37068662,3.64136158 3.0244473,3.29325069 3.0244473,2.87027724 C3.0244473,2.44543223 3.3725582,2.09919291 3.79553163,2.09919291 L15.2289157,2.09919291 C15.6537607,2.09919291 16,2.4473038 16,2.87027724 C16,3.29512225 15.6537607,3.64136157 15.2289157,3.64136158 Z M0.0561469159,2.87027724 C0.0561469113,2.55935713 0.222020812,2.2720551 0.491285524,2.11659504 C0.760550236,1.96113499 1.09229804,1.96113499 1.36156276,2.11659504 C1.63082747,2.2720551 1.79670137,2.55935713 1.79670136,2.87027724 C1.79670136,3.35091808 1.40706498,3.74055446 0.92642414,3.74055446 C0.445783301,3.74055446 0.0561469159,3.35091808 0.0561469159,2.87027724 Z M15.2289157,9.04702306 L3.79553163,9.04702306 C3.37068662,9.04702306 3.0244473,8.69891217 3.0244473,8.27593871 C3.0244473,7.8510937 3.3725582,7.50485438 3.79553163,7.50485438 L15.2289157,7.50485438 C15.6537607,7.50485438 16,7.85296528 16,8.27593871 C16,8.70078372 15.6537607,9.04702304 15.2289157,9.04702306 Z M0.0561469159,8.27593871 C0.0561469113,7.9650186 0.222020812,7.67771657 0.491285524,7.52225652 C0.760550236,7.36679646 1.09229804,7.36679646 1.36156276,7.52225652 C1.63082747,7.67771657 1.79670137,7.9650186 1.79670136,8.27593871 C1.79670136,8.75657955 1.40706498,9.14621594 0.92642414,9.14621594 C0.445783301,9.14621594 0.0561469159,8.75657955 0.0561469159,8.27593871 Z M15.1727687,14.4545561 L3.73938471,14.4545561 C3.3145397,14.4545561 2.96830039,14.1064452 2.96830039,13.6834718 C2.96830039,13.2586268 3.31641128,12.9123874 3.73938471,12.9123874 L15.1727687,12.9123874 C15.5976137,12.9123874 15.9438531,13.2604983 15.9438531,13.6834718 C15.9438531,14.1064452 15.5976138,14.4545561 15.1727687,14.4545561 Z M-6.28264937e-16,13.6816002 C-8.8817842e-16,13.2009594 0.389636385,12.811323 0.870277224,12.811323 C1.35091806,12.811323 1.74055445,13.2009594 1.74055445,13.6816002 C1.74055445,13.9925203 1.57468055,14.2798223 1.30541584,14.4352824 C1.03615113,14.5907425 0.70440332,14.5907425 0.435138608,14.4352824 C0.165873896,14.2798223 -4.63307152e-09,13.9925203 -6.28264937e-16,13.6816002 Z" id="Combined-Shape" fill="#999999" fill-rule="nonzero"></path>
        </g>
    </g>
</svg>