<?xml version="1.0" encoding="UTF-8"?>
<svg width="16px" height="16px" viewBox="0 0 16 16" version="1.1" xmlns="http://www.w3.org/2000/svg" xmlns:xlink="http://www.w3.org/1999/xlink">
    <!-- Generator: Sketch 48.2 (47327) - http://www.bohemiancoding.com/sketch -->
    <title>ic_jiaoyan_school</title>
    <desc>Created with Sketch.</desc>
    <defs></defs>
    <g id="01教研活动_用户投票_2详情" stroke="none" stroke-width="1" fill="none" fill-rule="evenodd" transform="translate(-15.000000, -545.000000)">
        <g id="ic_jiaoyan_school" transform="translate(15.000000, 545.000000)">
            <rect id="bg" x="0" y="0" width="16" height="16" rx="3"></rect>
            <path d="M8.00000001,4.00050274 L3.71537176,4.00050274 C3.53598051,4.00047216 3.37020302,4.09576094 3.28049853,4.25046756 C3.19079404,4.40517418 3.19079404,4.59578942 3.28049853,4.75049603 C3.37020302,4.90520265 3.53598051,5.00049143 3.71537176,5.00046085 L8.00000001,5.00046085 C8.17939126,5.00049143 8.34516875,4.90520265 8.43487324,4.75049603 C8.52457773,4.59578942 8.52457773,4.40517418 8.43487324,4.25046756 C8.34516875,4.09576094 8.17939126,4.00047216 8.00000001,4.00050274 Z M8.00000001,7.00037705 L3.71537176,7.00037705 C3.53598051,7.00034647 3.37020302,7.09563525 3.28049853,7.25034187 C3.19079404,7.40504848 3.19079404,7.59566372 3.28049853,7.75037034 C3.37020302,7.90507696 3.53598051,8.00036574 3.71537176,8.00033516 L8.00000001,8.00033516 C8.18306626,8.00610238 8.35476026,7.91213603 8.44800614,7.75514605 C8.54125202,7.59815606 8.54125202,7.40305612 8.44800614,7.24606614 C8.35476026,7.08907615 8.18306626,6.9951098 8.00000001,7.00087703 L8.00000001,7.00037705 Z M14.9641526,15.0000419 L14.9641526,6.00041895 C14.9455913,5.43025051 14.4668243,4.98278245 13.8942507,5.00046085 L10.676512,5.00046085 L10.676512,2.00058652 C10.6579507,1.43041809 10.1791837,0.982950031 9.60661009,1.00062842 L2.11026788,1.00062842 C1.83470213,0.991057109 1.5666496,1.09114215 1.36533039,1.27877203 C1.16401118,1.4664019 1.04599455,1.72613404 1.03735359,2.00058652 L1.03735359,15.0000419 L0.502151598,15.0000419 C0.322760349,15.0000113 0.156982859,15.0953001 0.067278368,15.2500067 C-0.0224261227,15.4047133 -0.0224261227,15.5953286 0.067278368,15.7500352 C0.156982859,15.9047418 0.322760349,16.0000306 0.502151598,16 L15.4978484,16 C15.6772397,16.0000306 15.8430171,15.9047418 15.9327216,15.7500352 C16.0224261,15.5953286 16.0224261,15.4047133 15.9327216,15.2500067 C15.8430171,15.0953001 15.6772397,15.0000113 15.4978484,15.0000419 L14.9631485,15.0000419 L14.9641526,15.0000419 Z M9.60811629,15.0000419 L2.11026788,15.0000419 L2.11026788,2.43206846 C2.1198026,2.18608366 2.3260555,1.99338595 2.57317241,1.99958658 L9.14370556,1.99958658 C9.39082246,1.99338595 9.59707537,2.18608366 9.60661009,2.43206846 L9.60661009,15.0025418 L9.60811629,15.0000419 Z M13.8912383,15.0000419 L10.6780182,15.0000419 L10.6780182,6.43690066 C10.6875529,6.19091586 10.8938058,5.99821815 11.1409227,6.00441877 L13.4278317,6.00441877 C13.6749486,5.99821815 13.8812015,6.19091586 13.8907363,6.43690066 L13.8907363,15.0050417 L13.8912383,15.0000419 Z M8.00000001,10.0012513 L3.71537176,10.0012513 C3.53598051,10.0012207 3.37020302,10.0965095 3.28049853,10.2512161 C3.19079404,10.4059228 3.19079404,10.596538 3.28049853,10.7512446 C3.37020302,10.9059512 3.53598051,11.00124 3.71537176,11.0012094 L8.00000001,11.0012094 C8.17939126,11.00124 8.34516875,10.9059512 8.43487324,10.7512446 C8.52457773,10.596538 8.52457773,10.4059228 8.43487324,10.2512161 C8.34516875,10.0965095 8.17939126,10.0012207 8.00000001,10.0012513 Z" id="Shape" fill="#999999" fill-rule="nonzero"></path>
        </g>
    </g>
</svg>